# xmcd
#
# Track frame offsets: 
#        151
#        15525
#        27108
#        46185
#        63741
#        86799
#        102485
#        124963
#        135913
#        151927
#        166624
#        175116
#        190490
#        207118
#
# Disc length: 2957 seconds
#
# Revision: 0
# Processed by: cddbd v1.4PL0 Copyright (c) Steve Scherf et al.
# Submitted via: ExactAudioCopy v0.90a11
#
DISCID=b20b8b0e
DTITLE=BB King - BB's Boogie
DYEAR=1900
DGENRE=
TTITLE0=How Blue Can You Get
TTITLE1=Paying the Cost to be the Boss
TTITLE2=Sweet Sixteen
TTITLE3=That Evil Child
TTITLE4=You've Done Lost Your Good Thing Now
TTITLE5=The Letter
TTITLE6=Everyday I have the Blues
TTITLE7=Catfish Blues
TTITLE8=My Own Fault
TTITLE9=BB's Boogie
TTITLE10=A New Way of Driving
TTITLE11=Walkin' and Cryin'
TTITLE12=The Other Night Blues
TTITLE13=Mr. Pawnbroker
EXTD=
EXTT0=
EXTT1=
EXTT2=
EXTT3=
EXTT4=
EXTT5=
EXTT6=
EXTT7=
EXTT8=
EXTT9=
EXTT10=
EXTT11=
EXTT12=
EXTT13=
PLAYORDER=
